<mxfile host="app.diagrams.net" modified="2025-10-21T00:00:00.000Z" agent="5.0" version="22.1.11" etag="attachment-api-structure" type="device">
  <diagram name="첨부파일 API 구조" id="attachment-api-diagram">
    <mxGraphModel dx="1422" dy="794" grid="1" gridSize="10" guides="1" tooltips="1" connect="1" arrows="1" fold="1" page="1" pageScale="1" pageWidth="1169" pageHeight="1654" math="0" shadow="0" background="#FFFFFF">
      <root>
        <mxCell id="0" />
        <mxCell id="1" parent="0" style="fillColor=#FFFFFF;" />
        
        <!-- 배경 -->
        <mxCell id="bg" value="" style="rounded=0;whiteSpace=wrap;html=1;fillColor=#FFFFFF;strokeColor=none;" vertex="1" parent="1">
          <mxGeometry x="0" y="0" width="1169" height="1654" as="geometry" />
        </mxCell>
        
        <!-- 제목 -->
        <mxCell id="title" value="첨부파일 API 전체 구조" style="text;html=1;strokeColor=none;fillColor=none;align=center;verticalAlign=middle;whiteSpace=wrap;rounded=0;fontSize=24;fontStyle=1;" vertex="1" parent="1">
          <mxGeometry x="334.5" y="30" width="500" height="50" as="geometry" />
        </mxCell>
        
        <!-- 클라이언트 -->
        <mxCell id="client" value="프론트엔드&#xa;클라이언트" style="rounded=1;whiteSpace=wrap;html=1;fillColor=#e3f2fd;strokeColor=#1565c0;fontStyle=1;fontSize=16;" vertex="1" parent="1">
          <mxGeometry x="484.5" y="120" width="200" height="80" as="geometry" />
        </mxCell>
        
        <!-- API 그룹 -->
        <mxCell id="api-group" value="첨부파일 API 엔드포인트" style="rounded=0;whiteSpace=wrap;html=1;fillColor=#f5f5f5;strokeColor=#666666;fontStyle=1;fontSize=18;align=left;verticalAlign=top;spacingLeft=15;spacingTop=15;" vertex="1" parent="1">
          <mxGeometry x="80" y="260" width="1009" height="900" as="geometry" />
        </mxCell>
        
        <!-- 화살표: 클라이언트 → API -->
        <mxCell id="arrow-client" style="edgeStyle=orthogonalEdgeStyle;rounded=0;orthogonalLoop=1;jettySize=auto;html=1;strokeWidth=3;strokeColor=#1565c0;" edge="1" parent="1" source="client" target="api-group">
          <mxGeometry relative="1" as="geometry" />
        </mxCell>
        
        <!-- 업로드 API -->
        <mxCell id="upload-box" value="" style="rounded=0;whiteSpace=wrap;html=1;fillColor=#fff3e0;strokeColor=#e65100;strokeWidth=2;" vertex="1" parent="1">
          <mxGeometry x="120" y="320" width="440" height="180" as="geometry" />
        </mxCell>
        
        <mxCell id="upload-title" value="📤 파일 업로드" style="text;html=1;strokeColor=none;fillColor=none;align=left;verticalAlign=top;whiteSpace=wrap;rounded=0;fontSize=16;fontStyle=1;spacingLeft=10;spacingTop=10;" vertex="1" parent="1">
          <mxGeometry x="120" y="320" width="440" height="30" as="geometry" />
        </mxCell>
        
        <mxCell id="upload-api" value="POST /api/board-attachments/upload/{boardIdx}" style="rounded=0;whiteSpace=wrap;html=1;fillColor=#ffe6cc;strokeColor=#d79b00;fontStyle=1;fontSize=13;align=left;spacingLeft=10;" vertex="1" parent="1">
          <mxGeometry x="140" y="360" width="400" height="40" as="geometry" />
        </mxCell>
        
        <mxCell id="upload-auth" value="🔒 인증: JWT 필수" style="text;html=1;strokeColor=none;fillColor=none;align=left;verticalAlign=middle;whiteSpace=wrap;rounded=0;fontSize=12;fontStyle=1;fontColor=#d84315;spacingLeft=10;" vertex="1" parent="1">
          <mxGeometry x="140" y="410" width="200" height="20" as="geometry" />
        </mxCell>
        
        <mxCell id="upload-input" value="입력: FormData (files, 최대 5개)" style="rounded=0;whiteSpace=wrap;html=1;fillColor=#fff9c4;strokeColor=#f57f17;align=left;spacingLeft=10;fontSize=11;fontFamily=Courier New;" vertex="1" parent="1">
          <mxGeometry x="140" y="440" width="400" height="30" as="geometry" />
        </mxCell>
        
        <mxCell id="upload-output" value="출력: { attachments: [{ attachmentIdx, originalFileName, ... }] }" style="rounded=0;whiteSpace=wrap;html=1;fillColor=#c8e6c9;strokeColor=#388e3c;align=left;spacingLeft=10;fontSize=11;fontFamily=Courier New;" vertex="1" parent="1">
          <mxGeometry x="140" y="480" width="400" height="30" as="geometry" />
        </mxCell>
        
        <!-- 연결 API -->
        <mxCell id="link-box" value="" style="rounded=0;whiteSpace=wrap;html=1;fillColor=#f3e5f5;strokeColor=#4a148c;strokeWidth=2;" vertex="1" parent="1">
          <mxGeometry x="600" y="320" width="440" height="180" as="geometry" />
        </mxCell>
        
        <mxCell id="link-title" value="🔗 첨부파일 연결" style="text;html=1;strokeColor=none;fillColor=none;align=left;verticalAlign=top;whiteSpace=wrap;rounded=0;fontSize=16;fontStyle=1;spacingLeft=10;spacingTop=10;" vertex="1" parent="1">
          <mxGeometry x="600" y="320" width="440" height="30" as="geometry" />
        </mxCell>
        
        <mxCell id="link-api" value="POST /api/boards/link-attachments/{boardIdx}" style="rounded=0;whiteSpace=wrap;html=1;fillColor=#e1d5e7;strokeColor=#9673a6;fontStyle=1;fontSize=13;align=left;spacingLeft=10;" vertex="1" parent="1">
          <mxGeometry x="620" y="360" width="400" height="40" as="geometry" />
        </mxCell>
        
        <mxCell id="link-auth" value="🔒 인증: JWT 필수" style="text;html=1;strokeColor=none;fillColor=none;align=left;verticalAlign=middle;whiteSpace=wrap;rounded=0;fontSize=12;fontStyle=1;fontColor=#4a148c;spacingLeft=10;" vertex="1" parent="1">
          <mxGeometry x="620" y="410" width="200" height="20" as="geometry" />
        </mxCell>
        
        <mxCell id="link-input" value="입력: { attachmentIdxList: [45, 46] }" style="rounded=0;whiteSpace=wrap;html=1;fillColor=#fff9c4;strokeColor=#f57f17;align=left;spacingLeft=10;fontSize=11;fontFamily=Courier New;" vertex="1" parent="1">
          <mxGeometry x="620" y="440" width="400" height="30" as="geometry" />
        </mxCell>
        
        <mxCell id="link-output" value="출력: { success: true }" style="rounded=0;whiteSpace=wrap;html=1;fillColor=#c8e6c9;strokeColor=#388e3c;align=left;spacingLeft=10;fontSize=11;fontFamily=Courier New;" vertex="1" parent="1">
          <mxGeometry x="620" y="480" width="400" height="30" as="geometry" />
        </mxCell>
        
        <!-- 다운로드 API -->
        <mxCell id="download-box" value="" style="rounded=0;whiteSpace=wrap;html=1;fillColor=#e1f5fe;strokeColor=#01579b;strokeWidth=2;" vertex="1" parent="1">
          <mxGeometry x="120" y="540" width="440" height="180" as="geometry" />
        </mxCell>
        
        <mxCell id="download-title" value="💾 파일 다운로드" style="text;html=1;strokeColor=none;fillColor=none;align=left;verticalAlign=top;whiteSpace=wrap;rounded=0;fontSize=16;fontStyle=1;spacingLeft=10;spacingTop=10;" vertex="1" parent="1">
          <mxGeometry x="120" y="540" width="440" height="30" as="geometry" />
        </mxCell>
        
        <mxCell id="download-api" value="POST /api/board-attachments/download" style="rounded=0;whiteSpace=wrap;html=1;fillColor=#bbdefb;strokeColor=#1565c0;fontStyle=1;fontSize=13;align=left;spacingLeft=10;" vertex="1" parent="1">
          <mxGeometry x="140" y="580" width="400" height="40" as="geometry" />
        </mxCell>
        
        <mxCell id="download-auth" value="🔓 인증: 불필요" style="text;html=1;strokeColor=none;fillColor=none;align=left;verticalAlign=middle;whiteSpace=wrap;rounded=0;fontSize=12;fontStyle=1;fontColor=#01579b;spacingLeft=10;" vertex="1" parent="1">
          <mxGeometry x="140" y="630" width="200" height="20" as="geometry" />
        </mxCell>
        
        <mxCell id="download-input" value="입력: { attachmentIdx: 45 }" style="rounded=0;whiteSpace=wrap;html=1;fillColor=#fff9c4;strokeColor=#f57f17;align=left;spacingLeft=10;fontSize=11;fontFamily=Courier New;" vertex="1" parent="1">
          <mxGeometry x="140" y="660" width="400" height="30" as="geometry" />
        </mxCell>
        
        <mxCell id="download-output" value="출력: Blob (파일 바이너리), Content-Disposition 헤더" style="rounded=0;whiteSpace=wrap;html=1;fillColor=#c8e6c9;strokeColor=#388e3c;align=left;spacingLeft=10;fontSize=11;fontFamily=Courier New;" vertex="1" parent="1">
          <mxGeometry x="140" y="700" width="400" height="30" as="geometry" />
        </mxCell>
        
        <!-- 정보 조회 API -->
        <mxCell id="info-box" value="" style="rounded=0;whiteSpace=wrap;html=1;fillColor=#e8f5e9;strokeColor=#2e7d32;strokeWidth=2;" vertex="1" parent="1">
          <mxGeometry x="600" y="540" width="440" height="180" as="geometry" />
        </mxCell>
        
        <mxCell id="info-title" value="ℹ️ 파일 정보 조회" style="text;html=1;strokeColor=none;fillColor=none;align=left;verticalAlign=top;whiteSpace=wrap;rounded=0;fontSize=16;fontStyle=1;spacingLeft=10;spacingTop=10;" vertex="1" parent="1">
          <mxGeometry x="600" y="540" width="440" height="30" as="geometry" />
        </mxCell>
        
        <mxCell id="info-api" value="POST /api/board-attachments/info" style="rounded=0;whiteSpace=wrap;html=1;fillColor=#c8e6c9;strokeColor=#388e3c;fontStyle=1;fontSize=13;align=left;spacingLeft=10;" vertex="1" parent="1">
          <mxGeometry x="620" y="580" width="400" height="40" as="geometry" />
        </mxCell>
        
        <mxCell id="info-auth" value="🔓 인증: 불필요" style="text;html=1;strokeColor=none;fillColor=none;align=left;verticalAlign=middle;whiteSpace=wrap;rounded=0;fontSize=12;fontStyle=1;fontColor=#2e7d32;spacingLeft=10;" vertex="1" parent="1">
          <mxGeometry x="620" y="630" width="200" height="20" as="geometry" />
        </mxCell>
        
        <mxCell id="info-input" value="입력: { attachmentIdx: 45 }" style="rounded=0;whiteSpace=wrap;html=1;fillColor=#fff9c4;strokeColor=#f57f17;align=left;spacingLeft=10;fontSize=11;fontFamily=Courier New;" vertex="1" parent="1">
          <mxGeometry x="620" y="660" width="400" height="30" as="geometry" />
        </mxCell>
        
        <mxCell id="info-output" value="출력: { originalFileName, fileSize, mimeType, ... }" style="rounded=0;whiteSpace=wrap;html=1;fillColor=#c8e6c9;strokeColor=#388e3c;align=left;spacingLeft=10;fontSize=11;fontFamily=Courier New;" vertex="1" parent="1">
          <mxGeometry x="620" y="700" width="400" height="30" as="geometry" />
        </mxCell>
        
        <!-- 삭제 API 그룹 -->
        <mxCell id="delete-group" value="🗑️ 삭제 API" style="rounded=0;whiteSpace=wrap;html=1;fillColor=#ffebee;strokeColor=#b71c1c;strokeWidth=2;fontStyle=1;fontSize=16;align=left;verticalAlign=top;spacingLeft=10;spacingTop=10;" vertex="1" parent="1">
          <mxGeometry x="120" y="760" width="920" height="360" as="geometry" />
        </mxCell>
        
        <!-- 단일 삭제 -->
        <mxCell id="delete1-box" value="" style="rounded=0;whiteSpace=wrap;html=1;fillColor=#ffcdd2;strokeColor=#c62828;strokeWidth=1;" vertex="1" parent="1">
          <mxGeometry x="160" y="810" width="380" height="140" as="geometry" />
        </mxCell>
        
        <mxCell id="delete1-title" value="단일 삭제" style="text;html=1;strokeColor=none;fillColor=none;align=left;verticalAlign=top;whiteSpace=wrap;rounded=0;fontSize=14;fontStyle=1;spacingLeft=10;spacingTop=5;" vertex="1" parent="1">
          <mxGeometry x="160" y="810" width="380" height="25" as="geometry" />
        </mxCell>
        
        <mxCell id="delete1-api" value="POST /api/board-attachments/delete/{attachmentIdx}" style="rounded=0;whiteSpace=wrap;html=1;fillColor=#ef9a9a;strokeColor=#c62828;fontStyle=1;fontSize=12;align=left;spacingLeft=10;" vertex="1" parent="1">
          <mxGeometry x="180" y="845" width="340" height="35" as="geometry" />
        </mxCell>
        
        <mxCell id="delete1-auth" value="🔒 JWT 필수" style="text;html=1;strokeColor=none;fillColor=none;align=left;verticalAlign=middle;whiteSpace=wrap;rounded=0;fontSize=11;fontStyle=1;fontColor=#c62828;spacingLeft=10;" vertex="1" parent="1">
          <mxGeometry x="180" y="890" width="100" height="20" as="geometry" />
        </mxCell>
        
        <mxCell id="delete1-desc" value="Path: attachmentIdx" style="rounded=0;whiteSpace=wrap;html=1;fillColor=#fff9c4;strokeColor=#f57f17;align=left;spacingLeft=10;fontSize=10;fontFamily=Courier New;" vertex="1" parent="1">
          <mxGeometry x="180" y="915" width="340" height="25" as="geometry" />
        </mxCell>
        
        <!-- 다중 삭제 -->
        <mxCell id="delete2-box" value="" style="rounded=0;whiteSpace=wrap;html=1;fillColor=#ffcdd2;strokeColor=#c62828;strokeWidth=1;" vertex="1" parent="1">
          <mxGeometry x="580" y="810" width="410" height="140" as="geometry" />
        </mxCell>
        
        <mxCell id="delete2-title" value="다중 삭제" style="text;html=1;strokeColor=none;fillColor=none;align=left;verticalAlign=top;whiteSpace=wrap;rounded=0;fontSize=14;fontStyle=1;spacingLeft=10;spacingTop=5;" vertex="1" parent="1">
          <mxGeometry x="580" y="810" width="410" height="25" as="geometry" />
        </mxCell>
        
        <mxCell id="delete2-api" value="POST /api/board-attachments/delete-multiple" style="rounded=0;whiteSpace=wrap;html=1;fillColor=#ef9a9a;strokeColor=#c62828;fontStyle=1;fontSize=12;align=left;spacingLeft=10;" vertex="1" parent="1">
          <mxGeometry x="600" y="845" width="370" height="35" as="geometry" />
        </mxCell>
        
        <mxCell id="delete2-auth" value="🔒 JWT 필수" style="text;html=1;strokeColor=none;fillColor=none;align=left;verticalAlign=middle;whiteSpace=wrap;rounded=0;fontSize=11;fontStyle=1;fontColor=#c62828;spacingLeft=10;" vertex="1" parent="1">
          <mxGeometry x="600" y="890" width="100" height="20" as="geometry" />
        </mxCell>
        
        <mxCell id="delete2-desc" value="Body: { attachmentIdxList: [45, 46, 47] }" style="rounded=0;whiteSpace=wrap;html=1;fillColor=#fff9c4;strokeColor=#f57f17;align=left;spacingLeft=10;fontSize=10;fontFamily=Courier New;" vertex="1" parent="1">
          <mxGeometry x="600" y="915" width="370" height="25" as="geometry" />
        </mxCell>
        
        <!-- 전체 삭제 -->
        <mxCell id="delete3-box" value="" style="rounded=0;whiteSpace=wrap;html=1;fillColor=#ffcdd2;strokeColor=#c62828;strokeWidth=1;" vertex="1" parent="1">
          <mxGeometry x="160" y="980" width="830" height="120" as="geometry" />
        </mxCell>
        
        <mxCell id="delete3-title" value="게시글별 전체 삭제" style="text;html=1;strokeColor=none;fillColor=none;align=left;verticalAlign=top;whiteSpace=wrap;rounded=0;fontSize=14;fontStyle=1;spacingLeft=10;spacingTop=5;" vertex="1" parent="1">
          <mxGeometry x="160" y="980" width="830" height="25" as="geometry" />
        </mxCell>
        
        <mxCell id="delete3-api" value="POST /api/board-attachments/delete-all/{boardIdx}" style="rounded=0;whiteSpace=wrap;html=1;fillColor=#ef9a9a;strokeColor=#c62828;fontStyle=1;fontSize=12;align=left;spacingLeft=10;" vertex="1" parent="1">
          <mxGeometry x="180" y="1015" width="790" height="35" as="geometry" />
        </mxCell>
        
        <mxCell id="delete3-auth" value="🔒 JWT 필수" style="text;html=1;strokeColor=none;fillColor=none;align=left;verticalAlign=middle;whiteSpace=wrap;rounded=0;fontSize=11;fontStyle=1;fontColor=#c62828;spacingLeft=10;" vertex="1" parent="1">
          <mxGeometry x="180" y="1060" width="100" height="20" as="geometry" />
        </mxCell>
        
        <mxCell id="delete3-desc" value="Path: boardIdx (게시글의 모든 첨부파일 삭제)" style="rounded=0;whiteSpace=wrap;html=1;fillColor=#fff9c4;strokeColor=#f57f17;align=left;spacingLeft=10;fontSize=10;fontFamily=Courier New;" vertex="1" parent="1">
          <mxGeometry x="300" y="1060" width="670" height="25" as="geometry" />
        </mxCell>
        
        <!-- 데이터베이스 -->
        <mxCell id="database" value="MinIO&#xa;객체 스토리지" style="shape=cylinder3;whiteSpace=wrap;html=1;boundedLbl=1;backgroundOutline=1;size=15;fillColor=#fff2cc;strokeColor=#d6b656;fontStyle=1;fontSize=14;" vertex="1" parent="1">
          <mxGeometry x="80" y="1240" width="160" height="100" as="geometry" />
        </mxCell>
        
        <mxCell id="db-board" value="BOARD_TBL" style="shape=cylinder3;whiteSpace=wrap;html=1;boundedLbl=1;backgroundOutline=1;size=15;fillColor=#dae8fc;strokeColor=#6c8ebf;fontStyle=1;fontSize=14;" vertex="1" parent="1">
          <mxGeometry x="280" y="1240" width="160" height="100" as="geometry" />
        </mxCell>
        
        <mxCell id="db-attachment" value="BOARD_ATTACHMENT_TBL" style="shape=cylinder3;whiteSpace=wrap;html=1;boundedLbl=1;backgroundOutline=1;size=15;fillColor=#d5e8d4;strokeColor=#82b366;fontStyle=1;fontSize=14;" vertex="1" parent="1">
          <mxGeometry x="480" y="1240" width="200" height="100" as="geometry" />
        </mxCell>
        
        <!-- 화살표: API → DB -->
        <mxCell id="arrow-db1" style="edgeStyle=orthogonalEdgeStyle;rounded=0;orthogonalLoop=1;jettySize=auto;html=1;strokeWidth=2;strokeColor=#f57f17;dashed=1;" edge="1" parent="1" source="api-group" target="database">
          <mxGeometry relative="1" as="geometry">
            <Array as="points">
              <mxPoint x="160" y="1200" />
            </Array>
          </mxGeometry>
        </mxCell>
        
        <mxCell id="arrow-db2" style="edgeStyle=orthogonalEdgeStyle;rounded=0;orthogonalLoop=1;jettySize=auto;html=1;strokeWidth=2;strokeColor=#1565c0;dashed=1;" edge="1" parent="1" source="api-group" target="db-board">
          <mxGeometry relative="1" as="geometry">
            <Array as="points">
              <mxPoint x="360" y="1200" />
            </Array>
          </mxGeometry>
        </mxCell>
        
        <mxCell id="arrow-db3" style="edgeStyle=orthogonalEdgeStyle;rounded=0;orthogonalLoop=1;jettySize=auto;html=1;strokeWidth=2;strokeColor=#2e7d32;dashed=1;" edge="1" parent="1" source="api-group" target="db-attachment">
          <mxGeometry relative="1" as="geometry">
            <Array as="points">
              <mxPoint x="580" y="1200" />
            </Array>
          </mxGeometry>
        </mxCell>
        
        <!-- 인증 정보 -->
        <mxCell id="auth-box" value="" style="rounded=0;whiteSpace=wrap;html=1;fillColor=#fce4ec;strokeColor=#880e4f;strokeWidth=2;" vertex="1" parent="1">
          <mxGeometry x="720" y="1240" width="370" height="180" as="geometry" />
        </mxCell>
        
        <mxCell id="auth-title" value="🔐 인증 정보" style="text;html=1;strokeColor=none;fillColor=none;align=left;verticalAlign=top;whiteSpace=wrap;rounded=0;fontSize=16;fontStyle=1;spacingLeft=10;spacingTop=10;" vertex="1" parent="1">
          <mxGeometry x="720" y="1240" width="370" height="35" as="geometry" />
        </mxCell>
        
        <mxCell id="auth-jwt" value="JWT 필수 API (5개)" style="rounded=0;whiteSpace=wrap;html=1;fillColor=#ffcdd2;strokeColor=#c62828;align=left;spacingLeft=10;fontSize=13;fontStyle=1;" vertex="1" parent="1">
          <mxGeometry x="740" y="1285" width="330" height="35" as="geometry" />
        </mxCell>
        
        <mxCell id="auth-jwt-list" value="• 파일 업로드&#xa;• 첨부파일 연결&#xa;• 파일 삭제 (단일/다중/전체)" style="text;html=1;strokeColor=none;fillColor=none;align=left;verticalAlign=top;whiteSpace=wrap;rounded=0;fontSize=11;spacingLeft=20;spacingTop=5;" vertex="1" parent="1">
          <mxGeometry x="740" y="1325" width="330" height="50" as="geometry" />
        </mxCell>
        
        <mxCell id="auth-no-jwt" value="JWT 불필요 API (2개)" style="rounded=0;whiteSpace=wrap;html=1;fillColor=#c8e6c9;strokeColor=#388e3c;align=left;spacingLeft=10;fontSize=13;fontStyle=1;" vertex="1" parent="1">
          <mxGeometry x="740" y="1380" width="330" height="35" as="geometry" />
        </mxCell>
        
        <mxCell id="auth-no-jwt-list" value="• 파일 다운로드&#xa;• 파일 정보 조회" style="text;html=1;strokeColor=none;fillColor=none;align=left;verticalAlign=top;whiteSpace=wrap;rounded=0;fontSize=11;spacingLeft=20;spacingTop=5;" vertex="1" parent="1">
          <mxGeometry x="740" y="1420" width="330" height="35" as="geometry" />
        </mxCell>
        
        <!-- 통계 정보 -->
        <mxCell id="stats-box" value="" style="rounded=0;whiteSpace=wrap;html=1;fillColor=#e8eaf6;strokeColor=#3949ab;strokeWidth=2;" vertex="1" parent="1">
          <mxGeometry x="80" y="1460" width="1009" height="140" as="geometry" />
        </mxCell>
        
        <mxCell id="stats-title" value="📊 API 통계" style="text;html=1;strokeColor=none;fillColor=none;align=left;verticalAlign=top;whiteSpace=wrap;rounded=0;fontSize=18;fontStyle=1;spacingLeft=10;spacingTop=10;" vertex="1" parent="1">
          <mxGeometry x="80" y="1460" width="1009" height="35" as="geometry" />
        </mxCell>
        
        <mxCell id="stats-1" value="총 API 개수: 7개" style="text;html=1;strokeColor=none;fillColor=none;align=left;verticalAlign=middle;whiteSpace=wrap;rounded=0;fontSize=14;fontStyle=1;spacingLeft=30;" vertex="1" parent="1">
          <mxGeometry x="100" y="1505" width="200" height="30" as="geometry" />
        </mxCell>
        
        <mxCell id="stats-2" value="JWT 필수: 5개 (업로드, 연결, 삭제 x3)" style="text;html=1;strokeColor=none;fillColor=none;align=left;verticalAlign=middle;whiteSpace=wrap;rounded=0;fontSize=14;spacingLeft=30;" vertex="1" parent="1">
          <mxGeometry x="100" y="1540" width="350" height="30" as="geometry" />
        </mxCell>
        
        <mxCell id="stats-3" value="JWT 불필요: 2개 (다운로드, 정보 조회)" style="text;html=1;strokeColor=none;fillColor=none;align=left;verticalAlign=middle;whiteSpace=wrap;rounded=0;fontSize=14;spacingLeft=30;" vertex="1" parent="1">
          <mxGeometry x="470" y="1505" width="350" height="30" as="geometry" />
        </mxCell>
        
        <mxCell id="stats-4" value="모든 API POST 메서드 사용" style="text;html=1;strokeColor=none;fillColor=none;align=left;verticalAlign=middle;whiteSpace=wrap;rounded=0;fontSize=14;spacingLeft=30;" vertex="1" parent="1">
          <mxGeometry x="470" y="1540" width="300" height="30" as="geometry" />
        </mxCell>
        
      </root>
    </mxGraphModel>
  </diagram>
</mxfile>
